<svg xmlns="http://www.w3.org/2000/svg" xmlns:svg="http://www.w3.org/2000/svg" id="svg5080" width="744.094" height="1052.362" version="1.1"><metadata id="metadata5085"/><g id="layer1" style="opacity:1"><path style="fill:#3deb3d;fill-opacity:1" id="path5105" d="M 563.28125 500.6875 C 525.78217 500.6875 495.375 527.55042 495.375 560.6875 C 495.375 593.82458 525.78217 620.6875 563.28125 620.6875 C 600.78033 620.6875 631.15625 593.82458 631.15625 560.6875 C 631.15625 527.55042 600.78033 500.6875 563.28125 500.6875 z M 563.03125 530.0625 C 582.13152 530.0625 597.625 543.02132 597.625 559 C 597.625 574.97868 582.13152 587.9375 563.03125 587.9375 C 543.93098 587.9375 528.46875 574.97868 528.46875 559 C 528.46875 543.02132 543.93098 530.0625 563.03125 530.0625 z"/><path style="fill:#00b8ff;fill-opacity:1" id="path5729" d="M 361.40625 555.8125 C 361.40625 591.52255 389.94602 620.46875 425.15625 620.46875 C 460.36648 620.46875 488.9375 591.52255 488.9375 555.8125 L 458.84375 555.8125 C 457.78403 573.82607 443.08905 588.09375 425.09375 588.09375 C 407.09845 588.09375 392.40347 573.82607 391.34375 555.8125 L 361.40625 555.8125 z"/><rect style="fill:#00b8ff;fill-opacity:1" id="rect5763" width="29.905" height="55.302" x="361.428" y="504.12"/><rect style="fill:#00b8ff;fill-opacity:1" id="rect5763-7" width="30.133" height="55.829" x="458.825" y="504.055"/><path style="fill:gray;fill-opacity:1" id="path5729-4" d="M 240.71875 378.28125 C 203.09907 378.28125 172.625 407.22745 172.625 442.9375 L 208.96875 442.9375 C 210.11469 425.53277 224.67021 411.75 242.46875 411.75 C 260.26729 411.75 274.82281 425.53277 275.96875 442.9375 L 308.84375 442.9375 C 308.84375 407.22745 278.33843 378.28125 240.71875 378.28125 z"/><rect style="fill:gray;fill-opacity:1" id="rect5831" width="36.429" height="181.793" x="172.64" y="438.61"/><rect style="fill:gray;fill-opacity:1" id="rect5833" width="50.905" height="34.135" x="203.625" y="502.812"/><rect style="fill:#f0f;fill-opacity:1" id="rect5837" width="33.534" height="238.021" x="318.642" y="382.288"/><path style="fill:#0048ff;fill-opacity:1" id="path5839" d="m 291.77919,476.1875 -17.96875,40.21875 -0.0937,0.21875 0.0937,0 c 0.093,12.69167 8.09651,22.9375 17.96875,22.9375 9.87224,0 17.87574,-10.24583 17.96875,-22.9375 l 0.0937,0 -0.0937,-0.21875 -17.96875,-40.21875 z"/></g></svg>