<svg xmlns="http://www.w3.org/2000/svg" xmlns:svg="http://www.w3.org/2000/svg" id="svg5080" width="744.094" height="1052.362" version="1.1"><metadata id="metadata5085"/><g id="layer1" style="opacity:1"><path style="fill:gray;fill-opacity:1" id="path5729-4" d="M 240.71875 378.28125 C 203.09907 378.28125 172.625 407.22745 172.625 442.9375 L 208.96875 442.9375 C 210.11469 425.53277 224.67021 411.75 242.46875 411.75 C 260.26729 411.75 274.82281 425.53277 275.96875 442.9375 L 308.84375 442.9375 C 308.84375 407.22745 278.33843 378.28125 240.71875 378.28125 z"/><rect style="fill:gray;fill-opacity:1" id="rect5831" width="36.429" height="181.793" x="172.64" y="438.61"/><rect style="fill:gray;fill-opacity:1" id="rect5833" width="50.905" height="34.135" x="203.625" y="502.812"/><path style="fill:#0048ff;fill-opacity:1" id="path5839" d="m 291.77919,476.1875 -17.96875,40.21875 -0.0937,0.21875 0.0937,0 c 0.093,12.69167 8.09651,22.9375 17.96875,22.9375 9.87224,0 17.87574,-10.24583 17.96875,-22.9375 l 0.0937,0 -0.0937,-0.21875 -17.96875,-40.21875 z"/></g></svg>