<svg xmlns="http://www.w3.org/2000/svg" xmlns:svg="http://www.w3.org/2000/svg" id="svg2" width="210mm" height="297mm" version="1.1" viewBox="0 0 744.094 1052.362"><metadata id="metadata7"/><g id="layer1"><g id="layer1-5" transform="translate(-24.747771,-4.2650257)" style="opacity:1"><path style="fill:#3deb3d;fill-opacity:1" id="path5105" d="m 563.28125,500.6875 c -37.49908,0 -67.90625,26.86292 -67.90625,60 0,33.13708 30.40717,60 67.90625,60 37.49908,0 67.875,-26.86292 67.875,-60 0,-33.13708 -30.37592,-60 -67.875,-60 z m -0.25,29.375 c 19.10027,0 34.59375,12.95882 34.59375,28.9375 0,15.97868 -15.49348,28.9375 -34.59375,28.9375 -19.10027,0 -34.5625,-12.95882 -34.5625,-28.9375 0,-15.97868 15.46223,-28.9375 34.5625,-28.9375 z"/><path style="fill:#00b8ff;fill-opacity:1" id="path5729" d="m 361.40625,555.8125 c 0,35.71005 28.53977,64.65625 63.75,64.65625 35.21023,0 63.78125,-28.9462 63.78125,-64.65625 l -30.09375,0 c -1.05972,18.01357 -15.7547,32.28125 -33.75,32.28125 -17.9953,0 -32.69028,-14.26768 -33.75,-32.28125 l -29.9375,0 z"/><rect style="fill:#00b8ff;fill-opacity:1" id="rect5763" width="29.905" height="55.302" x="361.428" y="504.12"/><rect style="fill:#00b8ff;fill-opacity:1" id="rect5763-7" width="30.133" height="55.829" x="458.825" y="504.055"/><path style="fill:#ccc;fill-opacity:1" id="path5729-4" d="m 240.71875,378.28125 c -37.61968,0 -68.09375,28.9462 -68.09375,64.65625 l 36.34375,0 c 1.14594,-17.40473 15.70146,-31.1875 33.5,-31.1875 17.79854,0 32.35406,13.78277 33.5,31.1875 l 32.875,0 c 0,-35.71005 -30.50532,-64.65625 -68.125,-64.65625 z"/><rect style="fill:#ccc;fill-opacity:1" id="rect5831" width="36.429" height="181.793" x="172.64" y="438.61"/><rect style="fill:#ccc;fill-opacity:1" id="rect5833" width="50.905" height="34.135" x="203.625" y="502.812"/><rect style="fill:#f0f;fill-opacity:1" id="rect5837" width="33.534" height="238.021" x="318.642" y="382.288"/><path style="fill:#80b3ff;fill-opacity:1" id="path5839" d="m 291.77919,476.1875 -17.96875,40.21875 -0.0937,0.21875 0.0937,0 c 0.093,12.69167 8.09651,22.9375 17.96875,22.9375 9.87224,0 17.87574,-10.24583 17.96875,-22.9375 l 0.0937,0 -0.0937,-0.21875 -17.96875,-40.21875 z"/></g></g></svg>